<svg width="24" height="25" viewBox="0 0 24 25" fill="none" xmlns="http://www.w3.org/2000/svg">
<path d="M10.29 4.36L1.81999 18.5C1.64536 18.8024 1.55296 19.1453 1.55198 19.4945C1.551 19.8437 1.64148 20.1871 1.81442 20.4905C1.98735 20.7939 2.23672 21.0467 2.5377 21.2239C2.83868 21.401 3.18079 21.4962 3.52999 21.5H20.47C20.8192 21.4962 21.1613 21.401 21.4623 21.2239C21.7633 21.0467 22.0126 20.7939 22.1856 20.4905C22.3585 20.1871 22.449 19.8437 22.448 19.4945C22.447 19.1453 22.3546 18.8024 22.18 18.5L13.71 4.36C13.5317 4.06611 13.2807 3.82312 12.9812 3.65448C12.6817 3.48585 12.3437 3.39725 12 3.39725C11.6563 3.39725 11.3183 3.48585 11.0188 3.65448C10.7193 3.82312 10.4683 4.06611 10.29 4.36V4.36Z" stroke="#E7980F" stroke-width="2" stroke-linecap="round" stroke-linejoin="round"/>
<path d="M12 9.5V13.5" stroke="#E7980F" stroke-width="2" stroke-linecap="round" stroke-linejoin="round"/>
<path d="M12 17.5H12.01" stroke="#E7980F" stroke-width="2" stroke-linecap="round" stroke-linejoin="round"/>
</svg>
